<svg width="66" height="66" viewBox="0 0 66 66" fill="none" xmlns="http://www.w3.org/2000/svg">
<path fill-rule="evenodd" clip-rule="evenodd" d="M4.125 33C4.125 40.6581 7.16718 48.0026 12.5823 53.4177C17.9974 58.8328 25.3419 61.875 33 61.875C40.6581 61.875 48.0026 58.8328 53.4177 53.4177C58.8328 48.0026 61.875 40.6581 61.875 33C61.875 25.3419 58.8328 17.9974 53.4177 12.5823C48.0026 7.16718 40.6581 4.125 33 4.125C25.3419 4.125 17.9974 7.16718 12.5823 12.5823C7.16718 17.9974 4.125 25.3419 4.125 33ZM66 33C66 41.7521 62.5232 50.1458 56.3345 56.3345C50.1458 62.5232 41.7521 66 33 66C24.2479 66 15.8542 62.5232 9.66548 56.3345C3.47678 50.1458 0 41.7521 0 33C0 24.2479 3.47678 15.8542 9.66548 9.66548C15.8542 3.47678 24.2479 0 33 0C41.7521 0 50.1458 3.47678 56.3345 9.66548C62.5232 15.8542 66 24.2479 66 33ZM47.4375 30.9375C47.9845 30.9375 48.5091 31.1548 48.8959 31.5416C49.2827 31.9284 49.5 32.453 49.5 33C49.5 33.547 49.2827 34.0716 48.8959 34.4584C48.5091 34.8452 47.9845 35.0625 47.4375 35.0625H23.5414L32.3978 43.9147C32.5895 44.1065 32.7416 44.3342 32.8454 44.5847C32.9492 44.8353 33.0026 45.1038 33.0026 45.375C33.0026 45.6462 32.9492 45.9147 32.8454 46.1653C32.7416 46.4158 32.5895 46.6435 32.3978 46.8353C32.206 47.027 31.9783 47.1791 31.7278 47.2829C31.4772 47.3867 31.2087 47.4401 30.9375 47.4401C30.6663 47.4401 30.3978 47.3867 30.1472 47.2829C29.8967 47.1791 29.669 47.027 29.4772 46.8353L17.1022 34.4603C16.9102 34.2687 16.7578 34.0411 16.6538 33.7905C16.5498 33.5399 16.4963 33.2713 16.4963 33C16.4963 32.7287 16.5498 32.4601 16.6538 32.2095C16.7578 31.9589 16.9102 31.7313 17.1022 31.5397L29.4772 19.1647C29.8645 18.7775 30.3898 18.5599 30.9375 18.5599C31.4852 18.5599 32.0105 18.7775 32.3978 19.1647C32.785 19.552 33.0026 20.0773 33.0026 20.625C33.0026 21.1727 32.785 21.698 32.3978 22.0853L23.5414 30.9375H47.4375Z" fill="#ED4D48"/>
</svg>
