<svg width="60" height="60" viewBox="0 0 60 60" fill="none" xmlns="http://www.w3.org/2000/svg">
<path d="M32.8125 13.125H38.4375" stroke="#260000" stroke-width="2" stroke-miterlimit="10" stroke-linecap="round" stroke-linejoin="round"/>
<path d="M21.5625 13.125H27.1875" stroke="#260000" stroke-width="2" stroke-miterlimit="10" stroke-linecap="round" stroke-linejoin="round"/>
<path d="M32.8125 48.75H11.25C9.1875 48.75 7.5 47.0625 7.5 45V16.875C7.5 14.8125 9.1875 13.125 11.25 13.125H15.9375" stroke="#260000" stroke-width="2" stroke-miterlimit="10" stroke-linecap="round" stroke-linejoin="round"/>
<path d="M44.0625 13.125H48.75C50.8125 13.125 52.5 14.8125 52.5 16.875V32.8125" stroke="#260000" stroke-width="2" stroke-miterlimit="10" stroke-linecap="round" stroke-linejoin="round"/>
<path d="M27.1875 30.1875C27.7053 30.1875 28.125 29.7678 28.125 29.25C28.125 28.7322 27.7053 28.3125 27.1875 28.3125C26.6697 28.3125 26.25 28.7322 26.25 29.25C26.25 29.7678 26.6697 30.1875 27.1875 30.1875Z" stroke="#260000" stroke-width="2" stroke-miterlimit="10" stroke-linecap="round" stroke-linejoin="round"/>
<path d="M33.75 30.1875C34.2678 30.1875 34.6875 29.7678 34.6875 29.25C34.6875 28.7322 34.2678 28.3125 33.75 28.3125C33.2322 28.3125 32.8125 28.7322 32.8125 29.25C32.8125 29.7678 33.2322 30.1875 33.75 30.1875Z" stroke="#260000" stroke-width="2" stroke-miterlimit="10" stroke-linecap="round" stroke-linejoin="round"/>
<path d="M40.3125 30.1875C40.8303 30.1875 41.25 29.7678 41.25 29.25C41.25 28.7322 40.8303 28.3125 40.3125 28.3125C39.7947 28.3125 39.375 28.7322 39.375 29.25C39.375 29.7678 39.7947 30.1875 40.3125 30.1875Z" stroke="#260000" stroke-width="2" stroke-miterlimit="10" stroke-linecap="round" stroke-linejoin="round"/>
<path d="M46.875 30.1875C47.3928 30.1875 47.8125 29.7678 47.8125 29.25C47.8125 28.7322 47.3928 28.3125 46.875 28.3125C46.3572 28.3125 45.9375 28.7322 45.9375 29.25C45.9375 29.7678 46.3572 30.1875 46.875 30.1875Z" stroke="#260000" stroke-width="2" stroke-miterlimit="10" stroke-linecap="round" stroke-linejoin="round"/>
<path d="M27.1875 36.75C27.7053 36.75 28.125 36.3303 28.125 35.8125C28.125 35.2947 27.7053 34.875 27.1875 34.875C26.6697 34.875 26.25 35.2947 26.25 35.8125C26.25 36.3303 26.6697 36.75 27.1875 36.75Z" stroke="#260000" stroke-width="2" stroke-miterlimit="10" stroke-linecap="round" stroke-linejoin="round"/>
<path d="M20.625 36.75C21.1428 36.75 21.5625 36.3303 21.5625 35.8125C21.5625 35.2947 21.1428 34.875 20.625 34.875C20.1072 34.875 19.6875 35.2947 19.6875 35.8125C19.6875 36.3303 20.1072 36.75 20.625 36.75Z" stroke="#260000" stroke-width="2" stroke-miterlimit="10" stroke-linecap="round" stroke-linejoin="round"/>
<path d="M14.0625 36.75C14.5803 36.75 15 36.3303 15 35.8125C15 35.2947 14.5803 34.875 14.0625 34.875C13.5447 34.875 13.125 35.2947 13.125 35.8125C13.125 36.3303 13.5447 36.75 14.0625 36.75Z" stroke="#260000" stroke-width="2" stroke-miterlimit="10" stroke-linecap="round" stroke-linejoin="round"/>
<path d="M33.75 36.75C34.2678 36.75 34.6875 36.3303 34.6875 35.8125C34.6875 35.2947 34.2678 34.875 33.75 34.875C33.2322 34.875 32.8125 35.2947 32.8125 35.8125C32.8125 36.3303 33.2322 36.75 33.75 36.75Z" stroke="#260000" stroke-width="2" stroke-miterlimit="10" stroke-linecap="round" stroke-linejoin="round"/>
<path d="M27.1875 43.3125C27.7053 43.3125 28.125 42.8928 28.125 42.375C28.125 41.8572 27.7053 41.4375 27.1875 41.4375C26.6697 41.4375 26.25 41.8572 26.25 42.375C26.25 42.8928 26.6697 43.3125 27.1875 43.3125Z" stroke="#260000" stroke-width="2" stroke-miterlimit="10" stroke-linecap="round" stroke-linejoin="round"/>
<path d="M20.625 43.3125C21.1428 43.3125 21.5625 42.8928 21.5625 42.375C21.5625 41.8572 21.1428 41.4375 20.625 41.4375C20.1072 41.4375 19.6875 41.8572 19.6875 42.375C19.6875 42.8928 20.1072 43.3125 20.625 43.3125Z" stroke="#260000" stroke-width="2" stroke-miterlimit="10" stroke-linecap="round" stroke-linejoin="round"/>
<path d="M14.0625 43.3125C14.5803 43.3125 15 42.8928 15 42.375C15 41.8572 14.5803 41.4375 14.0625 41.4375C13.5447 41.4375 13.125 41.8572 13.125 42.375C13.125 42.8928 13.5447 43.3125 14.0625 43.3125Z" stroke="#260000" stroke-width="2" stroke-miterlimit="10" stroke-linecap="round" stroke-linejoin="round"/>
<path d="M30 15V9.375" stroke="#260000" stroke-width="2" stroke-miterlimit="10" stroke-linecap="round" stroke-linejoin="round"/>
<path d="M18.75 15V9.375" stroke="#260000" stroke-width="2" stroke-miterlimit="10" stroke-linecap="round" stroke-linejoin="round"/>
<path d="M41.25 15V9.375" stroke="#260000" stroke-width="2" stroke-miterlimit="10" stroke-linecap="round" stroke-linejoin="round"/>
<path d="M7.5 21.5625H52.5" stroke="#260000" stroke-width="2" stroke-miterlimit="10" stroke-linecap="round" stroke-linejoin="round"/>
<path d="M40.6875 36.0937L45.9375 44.8125L55.875 41.4375C55.875 41.4375 54.0938 36.75 49.6875 35.25C45.2812 33.6562 41.9063 35.25 40.6875 36.0937Z" fill="#CBC9C2"/>
<path d="M46.125 55.4062C51.8722 55.4062 56.5312 50.7472 56.5312 45C56.5312 39.2528 51.8722 34.5938 46.125 34.5938C40.3778 34.5938 35.7188 39.2528 35.7188 45C35.7188 50.7472 40.3778 55.4062 46.125 55.4062Z" stroke="#260000" stroke-width="2" stroke-miterlimit="10" stroke-linecap="round" stroke-linejoin="round"/>
<path d="M46.125 45L50.9063 43.3125" stroke="#260000" stroke-width="2" stroke-miterlimit="10" stroke-linecap="round" stroke-linejoin="round"/>
<path d="M46.125 45L42.2812 38.8125" stroke="#260000" stroke-width="2" stroke-miterlimit="10" stroke-linecap="round" stroke-linejoin="round"/>
</svg>
