<svg width="60" height="60" viewBox="0 0 60 60" fill="none" xmlns="http://www.w3.org/2000/svg">
<path d="M52.42 26.87H51.48C50.95 24.95 49.21 23.53 47.13 23.53H42.48C41.93 23.53 41.48 23.98 41.48 24.53C41.48 25.08 41.93 25.53 42.48 25.53H47.13C48.49 25.53 49.6 26.62 49.65 27.97V34.47C49.65 34.49 49.66 34.5 49.66 34.52V35.53C49.66 40.31 45.77 44.19 41.03 44.19C40.35 44.17 39.68 44.03 39.02 43.8C37.71 43.32 36.54 42.38 35.66 41.08C34.66 39.61 33.86 38.63 33.07 37.89C31.35 36.27 28.64 36.27 26.92 37.89C26.13 38.63 25.34 39.61 24.33 41.08C23.44 42.38 22.28 43.32 20.97 43.8C20.32 44.04 19.64 44.17 19 44.19C14.22 44.19 10.34 40.3 10.34 35.53V34.52C10.34 34.5 10.35 34.49 10.35 34.47V27.97C10.4 26.62 11.51 25.53 12.87 25.53H17.18C17.73 25.53 18.18 25.08 18.18 24.53C18.18 23.98 17.73 23.53 17.18 23.53H12.87C10.79 23.53 9.05 24.95 8.52 26.87H7.58C6.16 26.87 5 28.03 5 29.45V32.88C5 34.31 6.16 35.46 7.58 35.46H8.34V35.52C8.34 41.4 13.12 46.18 19.04 46.18C19.93 46.15 20.82 45.98 21.67 45.66C23.38 45.03 24.87 43.83 25.99 42.19C26.91 40.85 27.62 39.96 28.29 39.33C29.26 38.42 30.73 38.42 31.71 39.33C32.39 39.96 33.1 40.84 34.01 42.19C35.13 43.83 36.63 45.03 38.33 45.66C39.18 45.97 40.07 46.15 40.99 46.18C46.87 46.18 51.65 41.4 51.65 35.52V35.46H52.41C53.83 35.46 54.99 34.3 54.99 32.88V29.45C55 28.03 53.84 26.87 52.42 26.87ZM7.58 33.47C7.26 33.47 7 33.21 7 32.88V29.45C7 29.13 7.26 28.87 7.58 28.87H8.34V33.47H7.58ZM53 32.88C53 33.2 52.74 33.46 52.42 33.46H51.66V28.86H52.42C52.74 28.86 53 29.12 53 29.44V32.88Z" fill="#260000"/>
<path d="M31.99 29.66C36.31 29.66 39.82 26.15 39.82 21.83C39.82 17.51 36.31 14 31.99 14C31.44 14 30.99 14.45 30.99 15V28.67C30.99 29.21 31.44 29.66 31.99 29.66ZM32.99 16.08C35.73 16.56 37.82 18.95 37.82 21.83C37.82 24.71 35.73 27.1 32.99 27.58V16.08Z" fill="#260000"/>
<path d="M29.01 18.2301C29.01 15.7901 27.03 13.8101 24.59 13.8101C22.15 13.8101 20.17 15.7901 20.17 18.2301C20.17 18.7801 20.62 19.2301 21.17 19.2301C21.72 19.2301 22.17 18.7801 22.17 18.2301C22.17 16.9001 23.25 15.8101 24.59 15.8101C25.93 15.8101 27.01 16.8901 27.01 18.2301C27.01 19.5701 25.93 20.6501 24.59 20.6501C24.04 20.6501 23.59 21.1001 23.59 21.6501C23.59 22.2001 24.04 22.6501 24.59 22.6501C25.92 22.6501 27.01 23.7301 27.01 25.0701C27.01 26.4101 25.93 27.4901 24.59 27.4901C23.25 27.4901 22.17 26.4101 22.17 25.0701C22.17 24.5201 21.72 24.0701 21.17 24.0701C20.62 24.0701 20.17 24.5201 20.17 25.0701C20.17 27.5101 22.15 29.4901 24.59 29.4901C27.03 29.4901 29.01 27.5101 29.01 25.0701C29.01 23.6901 28.38 22.4601 27.39 21.6501C28.38 20.8301 29.01 19.6001 29.01 18.2301Z" fill="#260000"/>
</svg>
