<svg width="60" height="60" viewBox="0 0 60 60" fill="none" xmlns="http://www.w3.org/2000/svg">
<path d="M52.5 52.5H34.6875C33.7275 52.5 32.73 52.0256 31.6725 51.5231C30.7425 51.0806 29.7825 50.625 29.0625 50.625H25.3125C24.795 50.625 24.375 50.205 24.375 49.6875C24.375 49.17 24.795 48.75 25.3125 48.75H29.0625C30.2044 48.75 31.3594 49.2994 32.4769 49.83C33.3 50.22 34.1494 50.625 34.6875 50.625H52.5C53.5331 50.625 54.375 49.785 54.375 48.75C54.375 47.715 53.5331 46.875 52.5 46.875C51.9825 46.875 51.5625 46.455 51.5625 45.9375C51.5625 45.42 51.9825 45 52.5 45H53.4375C54.4706 45 55.3125 44.16 55.3125 43.125C55.3125 42.09 54.4706 41.25 53.4375 41.25C52.92 41.25 52.5 40.83 52.5 40.3125C52.5 39.795 52.92 39.375 53.4375 39.375H54.375C55.4081 39.375 56.25 38.535 56.25 37.5C56.25 36.465 55.4081 35.625 54.375 35.625H53.4375C52.92 35.625 52.5 35.205 52.5 34.6875C52.5 34.17 52.92 33.75 53.4375 33.75C54.4706 33.75 55.3125 32.91 55.3125 31.875C55.3125 30.84 54.4706 30 53.4375 30H35.6175C35.3288 30 35.0569 29.8669 34.8787 29.64C34.7006 29.4131 34.6387 29.1169 34.7081 28.8356C34.7156 28.7981 35.6175 25.1325 35.6175 20.7487C35.6175 15.8719 33.6694 15.1331 31.8731 15.0206V21.5625C31.8731 21.7069 31.8394 21.8512 31.7737 21.9825L27.8831 29.7619C27.6506 30.2231 27.09 30.4144 26.625 30.1819C26.1619 29.9494 25.9744 29.3869 26.205 28.9237L30 21.3412V14.0625C30 13.545 30.42 13.125 30.9375 13.125C32.8988 13.125 37.4944 13.125 37.4944 20.7469C37.4944 23.895 37.065 26.6419 36.7781 28.125H53.4375C55.5056 28.125 57.1875 29.8069 57.1875 31.875C57.1875 32.7919 56.8556 33.6337 56.3063 34.2862C57.3956 34.9444 58.125 36.1369 58.125 37.5C58.125 38.8631 57.3956 40.0556 56.3063 40.7138C56.8556 41.3663 57.1875 42.2081 57.1875 43.125C57.1875 44.4881 56.4581 45.6806 55.3688 46.3388C55.9181 46.9913 56.25 47.8331 56.25 48.75C56.25 50.8181 54.5681 52.5 52.5 52.5Z" fill="#260000"/>
<path d="M25.4081 52.5H18.75V50.625H24.375V33.75H18.75V31.875H25.4081C25.9275 31.875 26.25 32.2631 26.25 32.7788V51.5288C26.25 52.05 25.9275 52.5 25.4081 52.5Z" fill="#260000"/>
<path d="M2.90808 56.25C2.39058 56.25 1.97058 55.83 1.97058 55.3125C1.97058 54.795 2.39058 54.375 2.90808 54.375H18.75V33.75H2.90808C2.39058 33.75 1.97058 33.33 1.97058 32.8125C1.97058 32.295 2.39058 31.875 2.90808 31.875H19.7831C20.3025 31.875 20.625 32.2631 20.625 32.7788V55.2788C20.625 55.8 20.3025 56.25 19.7831 56.25H2.90808Z" fill="#260000"/>
<path d="M54.3749 41.25H44.9999C42.9318 41.25 41.2499 39.5681 41.2499 37.5C41.2499 35.4319 42.9318 33.75 44.9999 33.75H54.3749C56.443 33.75 58.1249 35.4319 58.1249 37.5C58.1249 39.5681 56.443 41.25 54.3749 41.25ZM44.9999 35.625C43.9668 35.625 43.1249 36.465 43.1249 37.5C43.1249 38.535 43.9668 39.375 44.9999 39.375H54.3749C55.408 39.375 56.2499 38.535 56.2499 37.5C56.2499 36.465 55.408 35.625 54.3749 35.625H44.9999Z" fill="#260000"/>
<path d="M52.4999 52.5H46.8749C44.8068 52.5 43.1249 50.8181 43.1249 48.75C43.1249 46.6819 44.8068 45 46.8749 45H52.4999C54.568 45 56.2499 46.6819 56.2499 48.75C56.2499 50.8181 54.568 52.5 52.4999 52.5ZM46.8749 46.875C45.8418 46.875 44.9999 47.715 44.9999 48.75C44.9999 49.785 45.8418 50.625 46.8749 50.625H52.4999C53.533 50.625 54.3749 49.785 54.3749 48.75C54.3749 47.715 53.533 46.875 52.4999 46.875H46.8749Z" fill="#260000"/>
<path d="M53.4374 46.875H45.9374C43.8693 46.875 42.1874 45.1931 42.1874 43.125C42.1874 41.0569 43.8693 39.375 45.9374 39.375H53.4374C55.5055 39.375 57.1874 41.0569 57.1874 43.125C57.1874 45.1931 55.5055 46.875 53.4374 46.875ZM45.9374 41.25C44.9043 41.25 44.0624 42.09 44.0624 43.125C44.0624 44.16 44.9043 45 45.9374 45H53.4374C54.4705 45 55.3124 44.16 55.3124 43.125C55.3124 42.09 54.4705 41.25 53.4374 41.25H45.9374Z" fill="#260000"/>
<path d="M53.4374 35.625H45.9374C43.8693 35.625 42.1874 33.9431 42.1874 31.875C42.1874 29.8069 43.8693 28.125 45.9374 28.125H53.4374C55.5055 28.125 57.1874 29.8069 57.1874 31.875C57.1874 33.9431 55.5055 35.625 53.4374 35.625ZM45.9374 30C44.9043 30 44.0624 30.84 44.0624 31.875C44.0624 32.91 44.9043 33.75 45.9374 33.75H53.4374C54.4705 33.75 55.3124 32.91 55.3124 31.875C55.3124 30.84 54.4705 30 53.4374 30H45.9374Z" fill="#260000"/>
<path d="M33.0149 43.2263C32.5893 43.2263 32.203 42.9356 32.1037 42.5006C31.9855 41.9963 32.2987 41.4938 32.803 41.3738C34.978 40.8656 36.5587 39 37.033 36.3844C37.513 33.7331 36.6899 31.0275 35.0755 29.9494C34.6443 29.6625 34.528 29.0794 34.8149 28.65C35.0999 28.2188 35.6812 28.1025 36.1143 28.3894C38.3943 29.91 39.5043 33.2569 38.878 36.7181C38.2668 40.0931 36.1555 42.5156 33.2305 43.2C33.1574 43.2188 33.0862 43.2263 33.0149 43.2263Z" fill="#260000"/>
<path d="M37.7719 10.9856C38.0625 10.9856 38.3475 10.8525 38.5313 10.5994L40.7363 7.5656C41.0419 7.1456 40.9482 6.5606 40.53 6.25685C40.11 5.9531 39.5232 6.0431 39.2213 6.4631L37.0163 9.49685C36.7107 9.91685 36.8044 10.5019 37.2225 10.8056C37.3875 10.9275 37.5788 10.9856 37.7719 10.9856Z" fill="#260000"/>
<path d="M39.945 14.5575C40.0743 14.955 40.4418 15.2062 40.8375 15.2062C40.9331 15.2062 41.0306 15.1912 41.1262 15.1612L44.6925 14.0025C45.1856 13.8431 45.4556 13.3143 45.2943 12.8212C45.1331 12.3262 44.6025 12.0581 44.1131 12.2193L40.5468 13.3781C40.0556 13.5356 39.7856 14.0643 39.945 14.5575Z" fill="#260000"/>
<path d="M25.68 19.1926C25.5206 18.6976 24.99 18.4294 24.4987 18.5907L20.9325 19.7494C20.4394 19.9088 20.1694 20.4376 20.3306 20.9307C20.46 21.3282 20.8275 21.5794 21.2231 21.5794C21.3187 21.5794 21.4162 21.5644 21.5119 21.5344L25.0781 20.3757C25.5694 20.2144 25.8394 19.6857 25.68 19.1926Z" fill="#260000"/>
<path d="M44.6925 19.7494L41.1262 18.5906C40.6331 18.4294 40.1062 18.6994 39.945 19.1925C39.7856 19.6856 40.0556 20.2144 40.5468 20.3738L44.1131 21.5325C44.2087 21.5644 44.3062 21.5775 44.4018 21.5775C44.7975 21.5775 45.165 21.3263 45.2943 20.9288C45.4556 20.4375 45.1856 19.9088 44.6925 19.7494Z" fill="#260000"/>
<path d="M20.9325 14.0006L24.4987 15.1594C24.5944 15.1913 24.6919 15.2044 24.7875 15.2044C25.1831 15.2044 25.5506 14.9531 25.68 14.5556C25.8394 14.0625 25.5694 13.5338 25.0781 13.3744L21.5119 12.2156C21.0206 12.0563 20.4919 12.3244 20.3306 12.8175C20.1694 13.3125 20.4394 13.8413 20.9325 14.0006Z" fill="#260000"/>
<path d="M26.4057 6.46315C26.1019 6.04128 25.515 5.95315 25.0969 6.2569C24.6788 6.56065 24.585 7.14753 24.8907 7.56565L27.0957 10.5994C27.2794 10.8525 27.5644 10.9857 27.855 10.9857C28.0463 10.9857 28.2394 10.9275 28.4044 10.8057C28.8225 10.5019 28.9163 9.91503 28.6107 9.4969L26.4057 6.46315Z" fill="#260000"/>
<path d="M32.8125 3.75C32.295 3.75 31.875 4.17 31.875 4.6875V8.4375C31.875 8.955 32.295 9.375 32.8125 9.375C33.33 9.375 33.75 8.955 33.75 8.4375V4.6875C33.75 4.17 33.33 3.75 32.8125 3.75Z" fill="#260000"/>
</svg>
