<svg width="65" height="30" viewBox="0 0 65 30" fill="none" xmlns="http://www.w3.org/2000/svg">
<path d="M24.5787 18.5001L23.0777 19.9301C22.9499 20.0518 22.9499 20.2493 23.0777 20.3711L33.0888 29.9087C33.2167 30.0304 33.4239 30.0304 33.5517 29.9087L35.0527 28.4787C35.1805 28.3569 35.1805 28.1595 35.0527 28.0377L25.0416 18.5001C24.9138 18.3783 24.7065 18.3783 24.5787 18.5001Z" fill="#ED4D48"/>
<path d="M1.67715 26.2119C1.65052 26.4402 1.55735 26.6304 1.39762 26.7826C1.23789 26.9348 1.05154 27.0108 0.838573 27.0108C0.57236 27.0108 0.359389 26.9348 0.19966 26.7826C0.0665534 26.6304 0 26.4402 0 26.2119V1.17935C0 0.951087 0.0798641 0.76087 0.239592 0.608696C0.399321 0.456522 0.598981 0.380434 0.838573 0.380434C1.07817 0.380434 1.27783 0.456522 1.43755 0.608696C1.59728 0.76087 1.67715 0.951087 1.67715 1.17935V26.2119Z" fill="black"/>
<path d="M34.349 13.6956C34.349 15.7246 34.0163 17.5761 33.3507 19.25C32.7118 20.9239 31.7934 22.3695 30.5954 23.5869C29.3975 24.8043 27.9865 25.7427 26.3626 26.4022C24.7387 27.0616 22.9551 27.3913 21.0117 27.3913C19.0684 27.3913 17.2847 27.0616 15.6608 26.4022C14.0369 25.7427 12.626 24.8043 11.4281 23.5869C10.2301 22.3695 9.29834 20.9239 8.63281 19.25C7.9939 17.5761 7.67444 15.7246 7.67444 13.6956C7.67444 11.6667 7.9939 9.81521 8.63281 8.1413C9.29834 6.46739 10.2301 5.02174 11.4281 3.80435C12.626 2.58695 14.0369 1.64855 15.6608 0.98913C17.2847 0.32971 19.0684 0 21.0117 0C22.9551 0 24.7387 0.32971 26.3626 0.98913C27.9865 1.64855 29.3975 2.58695 30.5954 3.80435C31.7934 5.02174 32.7118 6.46739 33.3507 8.1413C34.0163 9.81521 34.349 11.6667 34.349 13.6956ZM32.6719 13.6956C32.6719 11.2609 32.1661 9.13043 31.1545 7.30434C30.1695 5.47826 28.7985 4.05797 27.0415 3.04347C25.3111 2.02898 23.3012 1.52174 21.0117 1.52174C18.7489 1.52174 16.739 2.02898 14.982 3.04347C13.225 4.05797 11.8407 5.47826 10.8291 7.30434C9.84408 9.13043 9.35158 11.2609 9.35158 13.6956C9.35158 16.1304 9.84408 18.2609 10.8291 20.0869C11.8407 21.913 13.225 23.3333 14.982 24.3478C16.739 25.3623 18.7489 25.8695 21.0117 25.8695C23.3012 25.8695 25.3111 25.3623 27.0415 24.3478C28.7985 23.3333 30.1695 21.913 31.1545 20.0869C32.1661 18.2609 32.6719 16.1304 32.6719 13.6956Z" fill="black"/>
<path d="M65 13.6956C65 15.7246 64.6672 17.5761 64.0017 19.25C63.3628 20.9239 62.4444 22.3695 61.2464 23.5869C60.0484 24.8043 58.6375 25.7427 57.0136 26.4022C55.3897 27.0616 53.6061 27.3913 51.6627 27.3913C49.7193 27.3913 47.9357 27.0616 46.3118 26.4022C44.6879 25.7427 43.277 24.8043 42.079 23.5869C40.881 22.3695 39.9493 20.9239 39.2838 19.25C38.6449 17.5761 38.3254 15.7246 38.3254 13.6956C38.3254 11.6667 38.6449 9.81521 39.2838 8.1413C39.9493 6.46739 40.881 5.02174 42.079 3.80435C43.277 2.58695 44.6879 1.64855 46.3118 0.98913C47.9357 0.32971 49.7193 0 51.6627 0C53.6061 0 55.3897 0.32971 57.0136 0.98913C58.6375 1.64855 60.0484 2.58695 61.2464 3.80435C62.4444 5.02174 63.3628 6.46739 64.0017 8.1413C64.6672 9.81521 65 11.6667 65 13.6956ZM63.3229 13.6956C63.3229 11.2609 62.8171 9.13043 61.8054 7.30434C60.8204 5.47826 59.4494 4.05797 57.6924 3.04347C55.9621 2.02898 53.9521 1.52174 51.6627 1.52174C49.3999 1.52174 47.39 2.02898 45.633 3.04347C43.876 4.05797 42.4916 5.47826 41.48 7.30434C40.495 9.13043 40.0025 11.2609 40.0025 13.6956C40.0025 16.1304 40.495 18.2609 41.48 20.0869C42.4916 21.913 43.876 23.3333 45.633 24.3478C47.39 25.3623 49.3999 25.8695 51.6627 25.8695C53.9521 25.8695 55.9621 25.3623 57.6924 24.3478C59.4494 23.3333 60.8204 21.913 61.8054 20.0869C62.8171 18.2609 63.3229 16.1304 63.3229 13.6956Z" fill="black"/>
</svg>
