<svg width="30" height="58" viewBox="0 0 30 58" fill="none" xmlns="http://www.w3.org/2000/svg">
<path d="M17.2875 46.8878C17.2875 45.6916 16.1147 44.7188 14.6732 44.7188C13.2315 44.7188 12.0587 45.6916 12.0587 46.8878C12.0587 48.0837 13.2315 49.0568 14.6732 49.0568C16.1147 49.0568 17.2875 48.0837 17.2875 46.8878ZM13.8773 46.8878C13.8773 46.5237 14.2342 46.2275 14.6732 46.2275C15.1121 46.2275 15.469 46.5235 15.469 46.8878C15.469 47.2519 15.1121 47.5481 14.6732 47.5481C14.2343 47.5481 13.8773 47.2517 13.8773 46.8878Z" fill="#260000"/>
<path d="M10.8831 28.7832L9.68196 35.1516L11.4785 35.3848L12.702 28.8982V28.8395C12.702 25.4999 9.42691 22.7827 5.40125 22.7827H1.81825V18.7156H20.5654V17.2069H1.81855V16.3255H27.528V17.2069H22.587V18.7156H27.528V22.7827H23.9449C19.9193 22.7827 16.6443 25.4997 16.6443 28.8395V28.8982L18.1755 37.016C18.7659 40.1466 18.5001 48.0374 17.4784 50.9761L17.3802 51.2612C17.1135 52.0404 16.6666 53.3444 16.1017 54.505C15.3155 56.1204 14.7909 56.4318 14.6731 56.4839C14.5557 56.4318 14.031 56.1204 13.2445 54.5046C12.6795 53.344 12.2329 52.0399 11.9661 51.2607L11.8682 50.9761C10.8463 48.0374 10.5803 40.1466 11.1708 37.016L9.37418 36.7828C8.74465 40.1207 9.02441 48.241 10.1208 51.3944L10.2168 51.6734C11.5175 55.4708 12.7729 58 14.6731 58C16.5731 58 17.8286 55.471 19.1292 51.6735L19.2253 51.3942C20.3217 48.241 20.6014 40.1207 19.9719 36.7828L18.4633 28.7831C18.4997 26.3011 20.9445 24.2914 23.9447 24.2914H29.3466V16.3255V14.8168V11.1373V4.54388V0.435791H0V14.8169V16.3257V24.2915H5.40155C8.4017 24.2915 10.8467 26.3013 10.8831 28.7832ZM27.528 4.54388V11.1373C27.528 11.9188 26.7613 12.5546 25.8193 12.5546C24.8775 12.5546 24.111 11.9188 24.111 11.1373V11.0181C24.111 9.72505 22.8428 8.67297 21.2843 8.67297C20.7283 8.67297 20.2761 8.29781 20.2761 7.83652V6.63835C20.2761 5.50141 19.1612 4.57632 17.7906 4.57632C16.4201 4.57632 15.3052 5.50129 15.3052 6.63835V7.2348C15.3052 7.26019 15.2804 7.28094 15.2498 7.28094C15.2191 7.28094 15.1943 7.26019 15.1943 7.2348V1.9445H27.5285V4.54388H27.528ZM1.81855 1.9445H3.43767V13.309H5.25622V1.9445H6.87534V8.1096H8.69389V1.9445H10.1254V13.309H11.9439V1.9445H13.3754V7.23492C13.3754 8.09225 14.2161 8.78977 15.2495 8.78977C16.2827 8.78977 17.1235 8.09225 17.1235 7.23492V6.63848C17.1235 6.33334 17.4226 6.08516 17.7903 6.08516C18.1579 6.08516 18.4572 6.33334 18.4572 6.63848V7.83664C18.4572 9.12973 19.7252 10.1818 21.284 10.1818C21.8399 10.1818 22.2921 10.557 22.2921 11.0183V11.1375C22.2921 12.7509 23.8742 14.0635 25.819 14.0635C26.4387 14.0635 27.0212 13.9298 27.5277 13.6961V14.8172H1.81855V1.9445Z" fill="#260000"/>
<path d="M8.69367 9.30029H6.87512V11.1062H8.69367V9.30029Z" fill="#260000"/>
<path d="M15.5826 9.30029H13.764V11.1062H15.5826V9.30029Z" fill="#260000"/>
<path d="M18.736 9.30029H16.9175V13.3091H18.736V9.30029Z" fill="#260000"/>
<path d="M5.25569 19.9172H3.43774V21.4254H5.25569V19.9172Z" fill="#260000"/>
<path d="M26.0316 19.9172H24.2136V21.4254H26.0316V19.9172Z" fill="#260000"/>
</svg>
