<svg width="48" height="58" viewBox="0 0 48 58" fill="none" xmlns="http://www.w3.org/2000/svg">
<path d="M8.92854 12.4917C8.71174 12.4917 8.50081 12.4039 8.34846 12.2515C8.19495 12.098 8.10706 11.8871 8.10706 11.6714C8.10706 11.6175 8.11291 11.5636 8.12346 11.5109C8.13401 11.4582 8.15042 11.4066 8.17034 11.3574C8.19143 11.3082 8.21604 11.2601 8.24651 11.2156C8.27581 11.171 8.30979 11.1289 8.34846 11.0914C8.38596 11.0539 8.42815 11.0187 8.47268 10.9894C8.51721 10.9601 8.56526 10.9343 8.61448 10.9132C8.6637 10.8933 8.71526 10.8781 8.76799 10.8675C8.87346 10.8453 8.98245 10.8453 9.08792 10.8675C9.14065 10.8781 9.19221 10.8933 9.24143 10.9132C9.29065 10.9343 9.3387 10.9601 9.38323 10.9894C9.42776 11.0187 9.46995 11.0539 9.50745 11.0914C9.54612 11.1289 9.5801 11.171 9.6094 11.2156C9.63987 11.2601 9.66448 11.3082 9.68557 11.3574C9.70549 11.4066 9.7219 11.4582 9.73245 11.5109C9.74299 11.5636 9.74768 11.6175 9.74768 11.6714C9.74768 11.8871 9.66096 12.098 9.50745 12.2515C9.46995 12.289 9.42776 12.323 9.38323 12.3535C9.3387 12.3828 9.29065 12.4085 9.24143 12.4285C9.19221 12.4496 9.14065 12.4648 9.08792 12.4753C9.03518 12.4859 8.98127 12.4917 8.92854 12.4917Z" fill="#260000"/>
<path d="M46.1871 57.4178H21.2848C20.8313 57.4178 20.4645 57.051 20.4645 56.5975V19.9683H8.92737C8.47385 19.9683 8.10706 19.6015 8.10706 19.1479V15.3862C8.10706 14.9327 8.47385 14.5659 8.92737 14.5659C9.38088 14.5659 9.74768 14.9327 9.74768 15.3862V18.3276H21.2848C21.7383 18.3276 22.1051 18.6944 22.1051 19.1479V55.7772H45.3656V46.1116C45.3656 45.6581 45.7324 45.2913 46.1859 45.2913C46.6395 45.2913 47.0063 45.6581 47.0063 46.1116V56.5975C47.0074 57.051 46.6395 57.4178 46.1871 57.4178Z" fill="#260000"/>
<path d="M46.1871 44.3492C46.1332 44.3492 46.0793 44.3434 46.0266 44.3328C45.9738 44.3223 45.9223 44.307 45.873 44.2859C45.8238 44.266 45.7758 44.2402 45.7313 44.2109C45.6867 44.1805 45.6445 44.1465 45.607 44.109C45.5684 44.0715 45.5344 44.0293 45.5051 43.9836C45.4746 43.9391 45.45 43.8922 45.4289 43.843C45.409 43.7926 45.3926 43.741 45.3821 43.6895C45.3715 43.6367 45.3668 43.5828 45.3668 43.5289C45.3668 43.475 45.3715 43.4211 45.3821 43.3684C45.3926 43.3156 45.409 43.2641 45.4289 43.2148C45.45 43.1656 45.4746 43.1176 45.5051 43.073C45.5344 43.0285 45.5684 42.9863 45.607 42.9488C45.6445 42.9102 45.6867 42.8762 45.7313 42.8469C45.7758 42.8176 45.8238 42.7918 45.873 42.7707C45.9223 42.7508 45.9738 42.7344 46.0266 42.7238C46.132 42.7027 46.241 42.7027 46.3465 42.7238C46.3992 42.7344 46.4508 42.7508 46.5 42.7707C46.5492 42.7918 46.5972 42.8176 46.6418 42.8469C46.6863 42.8762 46.7285 42.9102 46.766 42.9488C46.8046 42.9863 46.8386 43.0285 46.8679 43.073C46.8984 43.1176 46.923 43.1656 46.9441 43.2148C46.964 43.2641 46.9804 43.3156 46.991 43.3684C47.0015 43.4211 47.0062 43.475 47.0062 43.5289C47.0062 43.5828 47.0015 43.6367 46.991 43.6895C46.9804 43.741 46.964 43.7926 46.9441 43.843C46.923 43.8922 46.8984 43.9391 46.8679 43.9836C46.8386 44.0293 46.8046 44.0715 46.766 44.109C46.7285 44.1465 46.6863 44.1805 46.6418 44.2109C46.5972 44.2402 46.5492 44.266 46.5 44.2859C46.4508 44.307 46.3992 44.3223 46.3465 44.3328C46.2937 44.3434 46.2398 44.3492 46.1871 44.3492Z" fill="#260000"/>
<path d="M46.1871 41.2074C45.7336 41.2074 45.3668 40.8406 45.3668 40.3871V2.22266H9.74768V9.11094C9.74768 9.56445 9.38088 9.93125 8.92737 9.93125C8.47385 9.93125 8.10706 9.56445 8.10706 9.11094V1.40234C8.10706 0.948828 8.47385 0.582031 8.92737 0.582031H46.1859C46.6395 0.582031 47.0063 0.948828 47.0063 1.40234V40.3871C47.0074 40.8406 46.6395 41.2074 46.1871 41.2074Z" fill="#260000"/>
<path d="M9.46987 29.8368H5.99878C5.54526 29.8368 5.17847 29.47 5.17847 29.0165V25.5454C5.17847 25.0919 5.54526 24.7251 5.99878 24.7251H9.46987C9.92339 24.7251 10.2902 25.0919 10.2902 25.5454V29.0165C10.2902 29.47 9.92339 29.8368 9.46987 29.8368ZM6.81909 28.1962H8.64956V26.3657H6.81909V28.1962Z" fill="#260000"/>
<path d="M17.1 29.8368H13.6289C13.1754 29.8368 12.8086 29.47 12.8086 29.0165V25.5454C12.8086 25.0919 13.1754 24.7251 13.6289 24.7251H17.1C17.5535 24.7251 17.9203 25.0919 17.9203 25.5454V29.0165C17.9203 29.47 17.5523 29.8368 17.1 29.8368ZM14.4492 28.1962H16.2797V26.3657H14.4492V28.1962Z" fill="#260000"/>
<path d="M9.46987 36.8986H5.99878C5.54526 36.8986 5.17847 36.5318 5.17847 36.0783V32.6072C5.17847 32.1537 5.54526 31.7869 5.99878 31.7869H9.46987C9.92339 31.7869 10.2902 32.1537 10.2902 32.6072V36.0783C10.2902 36.5306 9.92339 36.8986 9.46987 36.8986ZM6.81909 35.258H8.64956V33.4275H6.81909V35.258Z" fill="#260000"/>
<path d="M17.1 36.8986H13.6289C13.1754 36.8986 12.8086 36.5318 12.8086 36.0783V32.6072C12.8086 32.1537 13.1754 31.7869 13.6289 31.7869H17.1C17.5535 31.7869 17.9203 32.1537 17.9203 32.6072V36.0783C17.9203 36.5306 17.5523 36.8986 17.1 36.8986ZM14.4492 35.258H16.2797V33.4275H14.4492V35.258Z" fill="#260000"/>
<path d="M9.46987 43.9591H5.99878C5.54526 43.9591 5.17847 43.5923 5.17847 43.1388V39.6677C5.17847 39.2142 5.54526 38.8474 5.99878 38.8474H9.46987C9.92339 38.8474 10.2902 39.2142 10.2902 39.6677V43.1388C10.2902 43.5923 9.92339 43.9591 9.46987 43.9591ZM6.81909 42.3185H8.64956V40.488H6.81909V42.3185Z" fill="#260000"/>
<path d="M17.1 43.9591H13.6289C13.1754 43.9591 12.8086 43.5923 12.8086 43.1388V39.6677C12.8086 39.2142 13.1754 38.8474 13.6289 38.8474H17.1C17.5535 38.8474 17.9203 39.2142 17.9203 39.6677V43.1388C17.9203 43.5923 17.5523 43.9591 17.1 43.9591ZM14.4492 42.3185H16.2797V40.488H14.4492V42.3185Z" fill="#260000"/>
<path d="M9.46987 51.0209H5.99878C5.54526 51.0209 5.17847 50.6541 5.17847 50.2006V46.7295C5.17847 46.276 5.54526 45.9092 5.99878 45.9092H9.46987C9.92339 45.9092 10.2902 46.276 10.2902 46.7295V50.2006C10.2902 50.6529 9.92339 51.0209 9.46987 51.0209ZM6.81909 49.3803H8.64956V47.5498H6.81909V49.3803Z" fill="#260000"/>
<path d="M17.1 51.0209H13.6289C13.1754 51.0209 12.8086 50.6541 12.8086 50.2006V46.7295C12.8086 46.276 13.1754 45.9092 13.6289 45.9092H17.1C17.5535 45.9092 17.9203 46.276 17.9203 46.7295V50.2006C17.9203 50.6529 17.5523 51.0209 17.1 51.0209ZM14.4492 49.3803H16.2797V47.5498H14.4492V49.3803Z" fill="#260000"/>
<path d="M30.1066 37.4492H26.755C26.3015 37.4492 25.9347 37.0824 25.9347 36.6289V33.2773C25.9347 32.8238 26.3015 32.457 26.755 32.457H30.1066C30.5601 32.457 30.9269 32.8238 30.9269 33.2773V36.6289C30.9269 37.0824 30.5589 37.4492 30.1066 37.4492ZM27.5753 35.8086H29.2863V34.0977H27.5753V35.8086Z" fill="#260000"/>
<path d="M30.1066 45.1484H26.755C26.3015 45.1484 25.9347 44.7816 25.9347 44.3281V40.9766C25.9347 40.523 26.3015 40.1562 26.755 40.1562H30.1066C30.5601 40.1562 30.9269 40.523 30.9269 40.9766V44.3281C30.9269 44.7816 30.5589 45.1484 30.1066 45.1484ZM27.5753 43.5078H29.2863V41.7969H27.5753V43.5078Z" fill="#260000"/>
<path d="M30.1066 52.8477H26.755C26.3015 52.8477 25.9347 52.4809 25.9347 52.0273V48.6758C25.9347 48.2223 26.3015 47.8555 26.755 47.8555H30.1066C30.5601 47.8555 30.9269 48.2223 30.9269 48.6758V52.0273C30.9269 52.4797 30.5589 52.8477 30.1066 52.8477ZM27.5753 51.207H29.2863V49.4961H27.5753V51.207Z" fill="#260000"/>
<path d="M17.1855 8.98325H13.725C13.2715 8.98325 12.9047 8.61646 12.9047 8.16294V4.70239C12.9047 4.24888 13.2715 3.88208 13.725 3.88208H17.1855C17.639 3.88208 18.0058 4.24888 18.0058 4.70239V8.16294C18.0058 8.61646 17.639 8.98325 17.1855 8.98325ZM14.5453 7.34263H16.3652V5.52271H14.5453V7.34263Z" fill="#260000"/>
<path d="M25.4203 8.98325H21.9597C21.5062 8.98325 21.1394 8.61646 21.1394 8.16294V4.70239C21.1394 4.24888 21.5062 3.88208 21.9597 3.88208H25.4203C25.8738 3.88208 26.2406 4.24888 26.2406 4.70239V8.16294C26.2406 8.61646 25.8738 8.98325 25.4203 8.98325ZM22.78 7.34263H24.6V5.52271H22.78V7.34263Z" fill="#260000"/>
<path d="M33.6539 8.98325H30.1934C29.7398 8.98325 29.373 8.61646 29.373 8.16294V4.70239C29.373 4.24888 29.7398 3.88208 30.1934 3.88208H33.6539C34.1074 3.88208 34.4742 4.24888 34.4742 4.70239V8.16294C34.4742 8.61646 34.1074 8.98325 33.6539 8.98325ZM31.0137 7.34263H32.8336V5.52271H31.0137V7.34263Z" fill="#260000"/>
<path d="M42.4312 8.98325H38.9707C38.5172 8.98325 38.1504 8.61646 38.1504 8.16294V4.70239C38.1504 4.24888 38.5172 3.88208 38.9707 3.88208H42.4312C42.8847 3.88208 43.2515 4.24888 43.2515 4.70239V8.16294C43.2515 8.61646 42.8835 8.98325 42.4312 8.98325ZM39.791 7.34263H41.6109V5.52271H39.791V7.34263Z" fill="#260000"/>
<path d="M17.1855 16.2066H13.725C13.2715 16.2066 12.9047 15.8398 12.9047 15.3863V11.9258C12.9047 11.4723 13.2715 11.1055 13.725 11.1055H17.1855C17.639 11.1055 18.0058 11.4723 18.0058 11.9258V15.3863C18.0058 15.8398 17.639 16.2066 17.1855 16.2066ZM14.5453 14.566H16.3652V12.7461H14.5453V14.566Z" fill="#260000"/>
<path d="M25.4203 16.2066H21.9597C21.5062 16.2066 21.1394 15.8398 21.1394 15.3863V11.9258C21.1394 11.4723 21.5062 11.1055 21.9597 11.1055H25.4203C25.8738 11.1055 26.2406 11.4723 26.2406 11.9258V15.3863C26.2406 15.8398 25.8738 16.2066 25.4203 16.2066ZM22.78 14.566H24.6V12.7461H22.78V14.566Z" fill="#260000"/>
<path d="M33.6539 16.2066H30.1934C29.7398 16.2066 29.373 15.8398 29.373 15.3863V11.9258C29.373 11.4723 29.7398 11.1055 30.1934 11.1055H33.6539C34.1074 11.1055 34.4742 11.4723 34.4742 11.9258V15.3863C34.4742 15.8398 34.1074 16.2066 33.6539 16.2066ZM31.0137 14.566H32.8336V12.7461H31.0137V14.566Z" fill="#260000"/>
<path d="M42.4312 16.2066H38.9707C38.5172 16.2066 38.1504 15.8398 38.1504 15.3863V11.9258C38.1504 11.4723 38.5172 11.1055 38.9707 11.1055H42.4312C42.8847 11.1055 43.2515 11.4723 43.2515 11.9258V15.3863C43.2515 15.8398 42.8835 16.2066 42.4312 16.2066ZM39.791 14.566H41.6109V12.7461H39.791V14.566Z" fill="#260000"/>
<path d="M25.4191 23.43H24.1371C23.6836 23.43 23.3168 23.0632 23.3168 22.6097C23.3168 22.1562 23.6836 21.7894 24.1371 21.7894H24.5988V19.9683H24.0469C23.5934 19.9683 23.2266 19.6015 23.2266 19.1479C23.2266 18.6944 23.5934 18.3276 24.0469 18.3276H25.4191C25.8727 18.3276 26.2395 18.6944 26.2395 19.1479V22.6097C26.2395 23.0632 25.8727 23.43 25.4191 23.43Z" fill="#260000"/>
<path d="M33.6539 23.43H30.1934C29.7398 23.43 29.373 23.0632 29.373 22.6097V19.1492C29.373 18.6957 29.7398 18.3289 30.1934 18.3289H33.6539C34.1074 18.3289 34.4742 18.6957 34.4742 19.1492V22.6097C34.4742 23.0621 34.1074 23.43 33.6539 23.43ZM31.0137 21.7894H32.8336V19.9695H31.0137V21.7894Z" fill="#260000"/>
<path d="M42.4312 23.43H38.9707C38.5172 23.43 38.1504 23.0632 38.1504 22.6097V19.1492C38.1504 18.6957 38.5172 18.3289 38.9707 18.3289H42.4312C42.8847 18.3289 43.2515 18.6957 43.2515 19.1492V22.6097C43.2515 23.0621 42.8835 23.43 42.4312 23.43ZM39.791 21.7894H41.6109V19.9695H39.791V21.7894Z" fill="#260000"/>
<path d="M42.4312 30.6524H38.9707C38.5172 30.6524 38.1504 30.2856 38.1504 29.8321V26.3716C38.1504 25.9181 38.5172 25.5513 38.9707 25.5513H42.4312C42.8847 25.5513 43.2515 25.9181 43.2515 26.3716V29.8321C43.2515 30.2856 42.8835 30.6524 42.4312 30.6524ZM39.791 29.0118H41.6109V27.1919H39.791V29.0118Z" fill="#260000"/>
<path d="M42.4312 37.8758H38.9707C38.5172 37.8758 38.1504 37.509 38.1504 37.0555V33.595C38.1504 33.1415 38.5172 32.7747 38.9707 32.7747H42.4312C42.8847 32.7747 43.2515 33.1415 43.2515 33.595V37.0555C43.2515 37.509 42.8835 37.8758 42.4312 37.8758ZM39.791 36.2352H41.6109V34.4153H39.791V36.2352Z" fill="#260000"/>
<path d="M42.4312 45.0992H38.9707C38.5172 45.0992 38.1504 44.7324 38.1504 44.2789V40.8184C38.1504 40.3648 38.5172 39.998 38.9707 39.998H42.4312C42.8847 39.998 43.2515 40.3648 43.2515 40.8184V44.2789C43.2515 44.7313 42.8835 45.0992 42.4312 45.0992ZM39.791 43.4586H41.6109V41.6387H39.791V43.4586Z" fill="#260000"/>
<path d="M42.4312 52.3214H38.9707C38.5172 52.3214 38.1504 51.9546 38.1504 51.5011V48.0405C38.1504 47.587 38.5172 47.2202 38.9707 47.2202H42.4312C42.8847 47.2202 43.2515 47.587 43.2515 48.0405V51.5011C43.2515 51.9546 42.8835 52.3214 42.4312 52.3214ZM39.791 50.6808H41.6109V48.8608H39.791V50.6808Z" fill="#260000"/>
<path d="M35.577 57.418H21.2848C20.8313 57.418 20.4645 57.0512 20.4645 56.5977V28.707C20.4645 28.2535 20.8313 27.8867 21.2848 27.8867H35.5758C36.0293 27.8867 36.3961 28.2535 36.3961 28.707C36.3961 29.1605 36.0293 29.5273 35.5758 29.5273H22.1051V55.7773H34.7555V32.1887C34.7555 31.7352 35.1223 31.3684 35.5758 31.3684C36.0293 31.3684 36.3961 31.7352 36.3961 32.1887V56.5977C36.3973 57.0512 36.0293 57.418 35.577 57.418Z" fill="#260000"/>
<path d="M21.2847 57.4179H1.81287C1.35935 57.4179 0.992554 57.0511 0.992554 56.5976V19.1479C0.992554 18.6944 1.35935 18.3276 1.81287 18.3276H21.2847C21.7383 18.3276 22.1051 18.6944 22.1051 19.1479V56.5976C22.1051 57.0511 21.7383 57.4179 21.2847 57.4179ZM2.63318 55.7772H20.4644V19.9683H2.63318V55.7772Z" fill="#260000"/>
</svg>
