<svg width="57" height="50" viewBox="0 0 57 50" fill="none" xmlns="http://www.w3.org/2000/svg">
<path d="M31.0566 33.6554C31.2526 33.8652 31.3627 34.1488 31.3627 34.4443C31.3627 34.7399 31.2526 35.0234 31.0566 35.2332C30.8582 35.4398 30.5914 35.5555 30.3135 35.5555C30.0357 35.5555 29.7689 35.4398 29.5705 35.2332L29.267 34.911L28.9635 35.2332C28.7651 35.4398 28.4984 35.5555 28.2205 35.5555C27.9426 35.5555 27.6758 35.4398 27.4775 35.2332C27.2814 35.0234 27.1714 34.7399 27.1714 34.4443C27.1714 34.1488 27.2814 33.8652 27.4775 33.6554L27.7809 33.3332L27.4775 33.011C27.2804 32.8018 27.1697 32.518 27.1697 32.2221C27.1697 31.9262 27.2804 31.6424 27.4775 31.4332C27.6745 31.224 27.9418 31.1064 28.2205 31.1064C28.4992 31.1064 28.7665 31.224 28.9635 31.4332L29.267 31.7554L29.5705 31.4332C29.7676 31.224 30.0349 31.1064 30.3135 31.1064C30.5922 31.1064 30.8595 31.224 31.0566 31.4332C31.2536 31.6424 31.3644 31.9262 31.3644 32.2221C31.3644 32.518 31.2536 32.8018 31.0566 33.011L30.7531 33.3332L31.0566 33.6554Z" fill="#260000"/>
<path d="M39.4289 33.6554C39.625 33.8652 39.735 34.1488 39.735 34.4443C39.735 34.7399 39.625 35.0234 39.4289 35.2332C39.2305 35.4398 38.9637 35.5555 38.6859 35.5555C38.408 35.5555 38.1412 35.4398 37.9428 35.2332L37.6393 34.911L37.3358 35.2332C37.1375 35.4398 36.8707 35.5555 36.5928 35.5555C36.3149 35.5555 36.0482 35.4398 35.8498 35.2332C35.6537 35.0234 35.5437 34.7399 35.5437 34.4443C35.5437 34.1488 35.6537 33.8652 35.8498 33.6554L36.1533 33.3332L35.8498 33.011C35.6527 32.8018 35.542 32.518 35.542 32.2221C35.542 31.9262 35.6527 31.6424 35.8498 31.4332C36.0468 31.224 36.3141 31.1064 36.5928 31.1064C36.8715 31.1064 37.1388 31.224 37.3358 31.4332L37.6393 31.7554L37.9428 31.4332C38.1399 31.224 38.4072 31.1064 38.6859 31.1064C38.9646 31.1064 39.2318 31.224 39.4289 31.4332C39.626 31.6424 39.7367 31.9262 39.7367 32.2221C39.7367 32.518 39.626 32.8018 39.4289 33.011L39.1254 33.3332L39.4289 33.6554Z" fill="#260000"/>
<path d="M55.9535 47.7779H48.6278V41.1112H49.1511C50.1225 41.1112 51.0542 40.7015 51.7411 39.9721C52.428 39.2428 52.8139 38.2537 52.8139 37.2223C52.8139 36.1909 52.428 35.2017 51.7411 34.4724C51.0542 33.7431 50.1225 33.3334 49.1511 33.3334H46.5348V28.8889C46.5323 28.0057 46.2007 27.1594 45.6125 26.5348C45.0242 25.9103 44.2271 25.5582 43.3952 25.5556H23.5112C22.6793 25.5582 21.8821 25.9103 21.2939 26.5348C20.7056 27.1594 20.3741 28.0057 20.3716 28.8889V33.3334H17.7553C16.7838 33.3334 15.8522 33.7431 15.1652 34.4724C14.4783 35.2017 14.0924 36.1909 14.0924 37.2223C14.0924 38.2537 14.4783 39.2428 15.1652 39.9721C15.8522 40.7015 16.7838 41.1112 17.7553 41.1112H18.2785V47.7779H14.0924V44.4445C14.0924 44.1498 13.9822 43.8672 13.7859 43.6588C13.5896 43.4505 13.3234 43.3334 13.0459 43.3334H11.9994V28.8889H16.1855C16.3477 28.8877 16.5076 28.8471 16.6527 28.77C16.7979 28.693 16.9244 28.5816 17.0227 28.4445C17.1208 28.309 17.1871 28.1507 17.2162 27.9826C17.2454 27.8145 17.2364 27.6415 17.1901 27.4778L15.0971 19.7C15.0356 19.4672 14.9042 19.262 14.7229 19.1156C14.5416 18.9692 14.3202 18.8896 14.0924 18.8889H7.81324C7.58546 18.8896 7.3641 18.9692 7.18278 19.1156C7.00146 19.262 6.87008 19.4672 6.80858 19.7L4.71552 27.4778C4.66925 27.6415 4.6603 27.8145 4.68941 27.9826C4.71853 28.1507 4.78487 28.309 4.88297 28.4445C4.98122 28.5816 5.10779 28.693 5.25293 28.77C5.39807 28.8471 5.55792 28.8877 5.72019 28.8889H9.9063V43.3334H8.85977C8.58222 43.3334 8.31603 43.4505 8.11976 43.6588C7.9235 43.8672 7.81324 44.1498 7.81324 44.4445V47.7779H1.53408C1.25652 47.7779 0.990332 47.8949 0.79407 48.1033C0.597808 48.3117 0.487549 48.5943 0.487549 48.889C0.487549 49.1837 0.597808 49.4663 0.79407 49.6746C0.990332 49.883 1.25652 50.0001 1.53408 50.0001H55.9535C56.2311 50.0001 56.4973 49.883 56.6935 49.6746C56.8898 49.4663 57.0001 49.1837 57.0001 48.889C57.0001 48.5943 56.8898 48.3117 56.6935 48.1033C56.4973 47.8949 56.2311 47.7779 55.9535 47.7779ZM7.11207 26.6667L8.59814 21.1111H13.3075L14.7936 26.6667H7.11207ZM9.9063 47.7779V45.5556H11.9994V47.7779H9.9063ZM22.4646 28.8889C22.4646 28.5942 22.5749 28.3116 22.7712 28.1033C22.9674 27.8949 23.2336 27.7778 23.5112 27.7778H43.3952C43.6727 27.7778 43.9389 27.8949 44.1352 28.1033C44.3315 28.3116 44.4417 28.5942 44.4417 28.8889V33.3778H44.4313L44.1173 33.4445C43.6443 33.5635 43.1986 33.7822 42.8067 34.0876C42.4147 34.393 42.0846 34.7788 41.8359 35.2223C41.7756 35.3174 41.7231 35.4177 41.6789 35.5223C41.6447 35.5858 41.6167 35.6528 41.5952 35.7223C41.5443 35.8331 41.5023 35.9484 41.4696 36.0667C41.3606 36.4411 41.3042 36.8305 41.3021 37.2223V38.8889H25.6042V37.2223C25.6022 36.8305 25.5458 36.4411 25.4368 36.0667C25.4041 35.9484 25.3621 35.8331 25.3112 35.7223C25.2897 35.6528 25.2616 35.5858 25.2275 35.5223C25.1832 35.4177 25.1307 35.3174 25.0705 35.2223C24.8217 34.7788 24.4916 34.393 24.0997 34.0876C23.7078 33.7822 23.2621 33.5635 22.7891 33.4445L22.4751 33.3778H22.4646V28.8889ZM20.3716 47.7779V40.0001C20.3716 39.7054 20.2613 39.4228 20.0651 39.2144C19.8688 39.006 19.6026 38.8889 19.3251 38.8889H17.7553C17.3389 38.8889 16.9396 38.7134 16.6452 38.4008C16.3509 38.0882 16.1855 37.6643 16.1855 37.2223C16.1846 37.0033 16.2248 36.7863 16.3039 36.5841C16.3829 36.3819 16.4992 36.1984 16.6459 36.0445C16.9401 35.7318 17.3391 35.556 17.7553 35.5556H21.9414C22.3577 35.5556 22.757 35.7312 23.0514 36.0438C23.3458 36.3563 23.5112 36.7803 23.5112 37.2223V47.7779H20.3716ZM25.6042 47.7779V41.1112H41.3021V47.7779H25.6042ZM43.3952 47.7779V37.2223C43.3952 36.7803 43.5606 36.3563 43.855 36.0438C44.1494 35.7312 44.5486 35.5556 44.965 35.5556H49.1511C49.5674 35.5556 49.9667 35.7312 50.2611 36.0438C50.5555 36.3563 50.7209 36.7803 50.7209 37.2223C50.7209 37.6643 50.5555 38.0882 50.2611 38.4008C49.9667 38.7134 49.5674 38.8889 49.1511 38.8889H47.5813C47.3037 38.8889 47.0376 39.006 46.8413 39.2144C46.645 39.4228 46.5348 39.7054 46.5348 40.0001V47.7779H43.3952Z" fill="#260000"/>
<path d="M45.5092 24.4444C45.3717 24.4451 45.2355 24.4171 45.1083 24.3619C44.9811 24.3068 44.8653 24.2255 44.7676 24.1229C44.67 24.0202 44.5923 23.8981 44.5391 23.7636C44.4858 23.6291 44.4581 23.4847 44.4574 23.3388C44.4567 23.1929 44.4831 23.0483 44.5351 22.9132C44.587 22.7781 44.6635 22.6552 44.7602 22.5515C44.8569 22.4478 44.9719 22.3654 45.0986 22.3089C45.2253 22.2524 45.3613 22.2229 45.4987 22.2222H45.5092C45.7867 22.2222 46.0529 22.3392 46.2492 22.5476C46.4454 22.756 46.5557 23.0386 46.5557 23.3333C46.5557 23.628 46.4454 23.9106 46.2492 24.119C46.0529 24.3273 45.7867 24.4444 45.5092 24.4444Z" fill="#260000"/>
<path d="M48.6487 27.7779C48.3711 27.7794 48.1044 27.6637 47.9072 27.4564C47.7099 27.249 47.5983 26.967 47.5969 26.6723C47.5955 26.3776 47.7045 26.0944 47.8998 25.885C48.095 25.6756 48.3607 25.5571 48.6382 25.5557H48.6487C48.9263 25.5557 49.1924 25.6727 49.3887 25.8811C49.585 26.0895 49.6952 26.3721 49.6952 26.6668C49.6952 26.9615 49.585 27.2441 49.3887 27.4525C49.1924 27.6608 48.9263 27.7779 48.6487 27.7779Z" fill="#260000"/>
<path d="M48.6487 31.1111C48.3711 31.1126 48.1044 30.997 47.9072 30.7896C47.7099 30.5823 47.5983 30.3003 47.5969 30.0056C47.5955 29.7109 47.7045 29.4277 47.8998 29.2183C48.095 29.0089 48.3607 28.8904 48.6382 28.8889H48.6487C48.9263 28.8889 49.1924 29.006 49.3887 29.2144C49.585 29.4227 49.6952 29.7053 49.6952 30C49.6952 30.2947 49.585 30.5773 49.3887 30.7857C49.1924 30.9941 48.9263 31.1111 48.6487 31.1111Z" fill="#260000"/>
<path d="M42.3696 24.4444C42.2322 24.4451 42.096 24.4171 41.9688 24.3619C41.8415 24.3068 41.7258 24.2255 41.6281 24.1229C41.4309 23.9156 41.3193 23.6335 41.3179 23.3388C41.3165 23.0441 41.4254 22.7609 41.6207 22.5515C41.816 22.3421 42.0816 22.2236 42.3592 22.2222H42.3696C42.6472 22.2222 42.9134 22.3392 43.1097 22.5476C43.3059 22.756 43.4162 23.0386 43.4162 23.3333C43.4162 23.628 43.3059 23.9106 43.1097 24.119C42.9134 24.3273 42.6472 24.4444 42.3696 24.4444Z" fill="#260000"/>
<path d="M39.23 24.4444C38.9524 24.4459 38.6857 24.3302 38.4885 24.1229C38.2912 23.9156 38.1796 23.6335 38.1782 23.3388C38.1768 23.0442 38.2858 22.761 38.4811 22.5515C38.6763 22.3421 38.942 22.2236 39.2195 22.2222H39.23C39.5076 22.2222 39.7737 22.3392 39.97 22.5476C40.1663 22.756 40.2765 23.0386 40.2765 23.3333C40.2765 23.628 40.1663 23.9106 39.97 24.119C39.7737 24.3273 39.5076 24.4444 39.23 24.4444Z" fill="#260000"/>
<path d="M51.7674 24.4445H48.6278C48.3503 24.4445 48.0841 24.3274 47.8878 24.119C47.6916 23.9107 47.5813 23.6281 47.5813 23.3334V20C47.5813 19.7053 47.6916 19.4227 47.8878 19.2144C48.0841 19.006 48.3503 18.8889 48.6278 18.8889C48.9054 18.8889 49.1716 19.006 49.3678 19.2144C49.5641 19.4227 49.6744 19.7053 49.6744 20V22.2223H51.7674C52.045 22.2223 52.3112 22.3393 52.5074 22.5477C52.7037 22.7561 52.8139 23.0387 52.8139 23.3334C52.8139 23.6281 52.7037 23.9107 52.5074 24.119C52.3112 24.3274 52.045 24.4445 51.7674 24.4445Z" fill="#260000"/>
<path d="M42.8719 8.8889H40.1719L36.2893 4.76667C36.4916 4.31956 36.5954 3.82939 36.5928 3.33334C36.5928 2.44928 36.262 1.60143 35.6732 0.976312C35.0844 0.35119 34.2859 0 33.4532 0C32.6205 0 31.822 0.35119 31.2332 0.976312C30.6444 1.60143 30.3136 2.44928 30.3136 3.33334C30.311 3.82939 30.4147 4.31956 30.6171 4.76667L26.7345 8.8889H24.0344C23.7569 8.8889 23.4907 9.00597 23.2944 9.21434C23.0982 9.42271 22.9879 9.70533 22.9879 10V20C22.9879 20.2947 23.0982 20.5773 23.2944 20.7857C23.4907 20.9941 23.7569 21.1111 24.0344 21.1111H42.8719C43.1495 21.1111 43.4157 20.9941 43.6119 20.7857C43.8082 20.5773 43.9185 20.2947 43.9185 20V10C43.9185 9.70533 43.8082 9.42271 43.6119 9.21434C43.4157 9.00597 43.1495 8.8889 42.8719 8.8889ZM33.4532 2.22223C33.7307 2.22223 33.9969 2.33929 34.1932 2.54766C34.3895 2.75604 34.4997 3.03865 34.4997 3.33334C34.5009 3.48166 34.4727 3.62859 34.4168 3.76453C34.3609 3.90047 34.2786 4.02236 34.1753 4.12223C34.0781 4.22372 33.963 4.30373 33.8365 4.35761C33.71 4.41149 33.5746 4.43817 33.4384 4.4361C33.3021 4.43403 33.1675 4.40326 33.0425 4.34557C32.9175 4.28787 32.8045 4.20441 32.7102 4.10001C32.6122 4.00159 32.5346 3.8826 32.4824 3.7506C32.4301 3.6186 32.4043 3.4765 32.4067 3.33334C32.4067 3.18743 32.4337 3.04294 32.4863 2.90813C32.5389 2.77333 32.616 2.65084 32.7132 2.54766C32.8104 2.44449 32.9257 2.36264 33.0527 2.3068C33.1797 2.25097 33.3158 2.22223 33.4532 2.22223ZM32.1032 6.34445C32.166 6.37779 32.2288 6.40001 32.2915 6.43334C32.3695 6.46961 32.4499 6.49933 32.5322 6.52223C32.6286 6.55337 32.7264 6.57933 32.8253 6.60001C32.9151 6.62024 33.006 6.63508 33.0974 6.64445C33.223 6.65557 33.3381 6.66668 33.4532 6.66668C33.5683 6.66668 33.6834 6.65557 33.809 6.64445C33.9004 6.63508 33.9913 6.62024 34.0811 6.60001C34.18 6.57933 34.2778 6.55337 34.3741 6.52223C34.4559 6.49759 34.5363 6.46791 34.6148 6.43334C34.6795 6.40839 34.7424 6.37869 34.8032 6.34445L37.2102 8.8889H29.6962L32.1032 6.34445ZM31.9776 18.8889H28.6496L31.3601 16.0111L33.0241 17.7778L31.9776 18.8889ZM34.9393 18.8889L35.316 18.4889L36.5928 17.1222L38.2568 18.8889H34.9393ZM41.8254 18.8889H41.2184L37.3358 14.7667C37.1382 14.5585 36.8711 14.4417 36.5928 14.4417C36.3144 14.4417 36.0473 14.5585 35.8497 14.7667L34.4997 16.2L32.1032 13.6556C31.9056 13.4474 31.6385 13.3306 31.3601 13.3306C31.0818 13.3306 30.8147 13.4474 30.6171 13.6556L25.688 18.8889H25.081V11.1111H41.8254V18.8889Z" fill="#260000"/>
</svg>
