<?xml version="1.0" encoding="UTF-8" standalone="no" ?>
<!DOCTYPE svg PUBLIC "-//W3C//DTD SVG 1.1//EN" "http://www.w3.org/Graphics/SVG/1.1/DTD/svg11.dtd">
<svg xmlns="http://www.w3.org/2000/svg" xmlns:xlink="http://www.w3.org/1999/xlink" version="1.1" width="400" height="400" viewBox="0 0 400 400" xml:space="preserve">
<desc>Created with Fabric.js 4.6.0</desc>
<defs>
</defs>
<g transform="matrix(1.47 0 0 1.47 200 200)" id="l9ZUuTz-seF6tZLo2JFbx"  >
<g style="" vector-effect="non-scaling-stroke"   >
		<g transform="matrix(7.69 0 0 7.69 0 0)" id="RXAhDPSfN-AqSVE7OZ2O6"  >
<path style="stroke: none; stroke-width: 1; stroke-dasharray: none; stroke-linecap: butt; stroke-dashoffset: 0; stroke-linejoin: miter; stroke-miterlimit: 4; fill: rgb(0,0,0); fill-rule: nonzero; opacity: 1;" vector-effect="non-scaling-stroke"  transform=" translate(-16, -16)" d="M 24 3 L 8 3 C 5.238576250846033 3 3 5.238576250846033 3 8 L 3 24 C 3 26.761423749153966 5.238576250846033 29 8 29 L 16 29 C 16.552284749830793 29 17 28.552284749830793 17 28 L 17 20 C 17 19.447715250169207 16.552284749830793 19 16 19 L 15 19 L 15 17 L 16 17 C 16.552284749830793 17 17 16.552284749830793 17 16 L 17 12.5 C 17 11.119288125423017 18.119288125423015 10 19.5 10 L 22 10 L 22 12 L 21 12 C 19.895430500338414 12 19 12.895430500338414 19 14 L 19 16 C 19 16.552284749830793 19.447715250169207 17 20 17 L 21.72 17 L 21.22 19 L 20 19 C 19.447715250169207 19 19 19.447715250169207 19 20 L 19 24 C 19 24.552284749830793 19.447715250169207 25 20 25 C 20.552284749830793 25 21 24.552284749830793 21 24 L 21 21 L 22 21 C 22.47069717708568 21.013713624818877 22.887184471427297 20.697183281119244 23 20.24 L 24 16.24 C 24.07589592121232 15.940915466850045 24.009469128166554 15.623543011186932 23.82 15.379999999999999 C 23.622761212941704 15.129997874342857 23.318246087507724 14.988881108897843 23 15 L 21 15 L 21 14 L 23 14 C 23.552284749830793 14 24 13.552284749830793 24 13 L 24 9 C 24 8.447715250169207 23.552284749830793 8 23 8 L 19.5 8 C 17.01700014681581 8.00549946618338 15.005499466183375 10.017000146815816 15 12.500000000000007 L 15 15 L 14 15 C 13.447715250169207 15 13 15.447715250169207 13 16 L 13 20 C 13 20.552284749830793 13.447715250169207 21 14 21 L 15 21 L 15 27 L 8 27 C 6.343145750507619 27 5 25.65685424949238 5 24 L 5 8 C 5 6.343145750507619 6.343145750507619 5 8 5 L 24 5 C 25.65685424949238 5 27 6.3431457505076185 27 7.999999999999999 L 27 24 C 27 25.65685424949238 25.65685424949238 27 24 27 L 20 27 C 19.447715250169207 27 19 27.447715250169207 19 28 C 19 28.552284749830793 19.447715250169207 29 20 29 L 24 29 C 26.761423749153966 29 29 26.761423749153966 29 24 L 29 8 C 29 5.238576250846033 26.761423749153966 3 24 3 Z" stroke-linecap="round" />
</g>
		<g transform="matrix(7.69 0 0 7.69 0 0)" id="KMaAnNtwAuypJCT99eGHl"  >
<path style="stroke: none; stroke-width: 1; stroke-dasharray: none; stroke-linecap: butt; stroke-dashoffset: 0; stroke-linejoin: miter; stroke-miterlimit: 4; fill: rgb(0,0,0); fill-rule: nonzero; opacity: 1;" vector-effect="non-scaling-stroke"  transform=" translate(-16, -16)" d="M 24 3 L 8 3 C 5.238576250846033 3 3 5.238576250846033 3 8 L 3 24 C 3 26.761423749153966 5.238576250846033 29 8 29 L 16 29 C 16.552284749830793 29 17 28.552284749830793 17 28 L 17 20 C 17 19.447715250169207 16.552284749830793 19 16 19 L 15 19 L 15 17 L 16 17 C 16.552284749830793 17 17 16.552284749830793 17 16 L 17 12.5 C 17 11.119288125423017 18.119288125423015 10 19.5 10 L 22 10 L 22 12 L 21 12 C 19.895430500338414 12 19 12.895430500338414 19 14 L 19 16 C 19 16.552284749830793 19.447715250169207 17 20 17 L 21.72 17 L 21.22 19 L 20 19 C 19.447715250169207 19 19 19.447715250169207 19 20 L 19 24 C 19 24.552284749830793 19.447715250169207 25 20 25 C 20.552284749830793 25 21 24.552284749830793 21 24 L 21 21 L 22 21 C 22.47069717708568 21.013713624818877 22.887184471427297 20.697183281119244 23 20.24 L 24 16.24 C 24.07589592121232 15.940915466850045 24.009469128166554 15.623543011186932 23.82 15.379999999999999 C 23.622761212941704 15.129997874342857 23.318246087507724 14.988881108897843 23 15 L 21 15 L 21 14 L 23 14 C 23.552284749830793 14 24 13.552284749830793 24 13 L 24 9 C 24 8.447715250169207 23.552284749830793 8 23 8 L 19.5 8 C 17.01700014681581 8.00549946618338 15.005499466183375 10.017000146815816 15 12.500000000000007 L 15 15 L 14 15 C 13.447715250169207 15 13 15.447715250169207 13 16 L 13 20 C 13 20.552284749830793 13.447715250169207 21 14 21 L 15 21 L 15 27 L 8 27 C 6.343145750507619 27 5 25.65685424949238 5 24 L 5 8 C 5 6.343145750507619 6.343145750507619 5 8 5 L 24 5 C 25.65685424949238 5 27 6.3431457505076185 27 7.999999999999999 L 27 24 C 27 25.65685424949238 25.65685424949238 27 24 27 L 20 27 C 19.447715250169207 27 19 27.447715250169207 19 28 C 19 28.552284749830793 19.447715250169207 29 20 29 L 24 29 C 26.761423749153966 29 29 26.761423749153966 29 24 L 29 8 C 29 5.238576250846033 26.761423749153966 3 24 3 Z" stroke-linecap="round" />
</g>
</g>
</g>
</svg>