<?xml version="1.0" encoding="UTF-8" standalone="no" ?>
<!DOCTYPE svg PUBLIC "-//W3C//DTD SVG 1.1//EN" "http://www.w3.org/Graphics/SVG/1.1/DTD/svg11.dtd">
<svg xmlns="http://www.w3.org/2000/svg" xmlns:xlink="http://www.w3.org/1999/xlink" version="1.1" width="400" height="400" viewBox="0 0 400 400" xml:space="preserve">
<desc>Created with Fabric.js 3.6.2</desc>
<defs>
</defs>
<g transform="matrix(7.69 0 0 7.69 200 200)" id="facebook_fb_face_book"  >
<path style="stroke: none; stroke-width: 1; stroke-dasharray: none; stroke-linecap: butt; stroke-dashoffset: 0; stroke-linejoin: miter; stroke-miterlimit: 4; fill: rgb(0,0,0); fill-rule: nonzero; opacity: 1;"  transform=" translate(-16, -16)" d="M 24 3 H 8 A 5 5 0 0 0 3 8 V 24 a 5 5 0 0 0 5 5 h 8 a 1 1 0 0 0 1 -1 V 20 a 1 1 0 0 0 -1 -1 H 15 V 17 h 1 a 1 1 0 0 0 1 -1 V 12.5 A 2.5 2.5 0 0 1 19.5 10 H 22 v 2 H 21 a 2 2 0 0 0 -2 2 v 2 a 1 1 0 0 0 1 1 h 1.72 l -0.5 2 H 20 a 1 1 0 0 0 -1 1 v 4 a 1 1 0 0 0 2 0 V 21 h 1 a 1 1 0 0 0 1 -0.76 l 1 -4 a 1 1 0 0 0 -0.18 -0.86 A 1 1 0 0 0 23 15 H 21 V 14 h 2 a 1 1 0 0 0 1 -1 V 9 a 1 1 0 0 0 -1 -1 H 19.5 A 4.51 4.51 0 0 0 15 12.5 V 15 H 14 a 1 1 0 0 0 -1 1 v 4 a 1 1 0 0 0 1 1 h 1 v 6 H 8 a 3 3 0 0 1 -3 -3 V 8 A 3 3 0 0 1 8 5 H 24 a 3 3 0 0 1 3 3 V 24 a 3 3 0 0 1 -3 3 H 20 a 1 1 0 0 0 0 2 h 4 a 5 5 0 0 0 5 -5 V 8 A 5 5 0 0 0 24 3 Z" stroke-linecap="round" />
</g>
<g transform="matrix(7.69 0 0 7.69 200 200)" id="facebook_fb_face_book"  >
<path style="stroke: none; stroke-width: 1; stroke-dasharray: none; stroke-linecap: butt; stroke-dashoffset: 0; stroke-linejoin: miter; stroke-miterlimit: 4; fill: rgb(0,0,0); fill-rule: nonzero; opacity: 1;"  transform=" translate(-16, -16)" d="M 24 3 H 8 A 5 5 0 0 0 3 8 V 24 a 5 5 0 0 0 5 5 h 8 a 1 1 0 0 0 1 -1 V 20 a 1 1 0 0 0 -1 -1 H 15 V 17 h 1 a 1 1 0 0 0 1 -1 V 12.5 A 2.5 2.5 0 0 1 19.5 10 H 22 v 2 H 21 a 2 2 0 0 0 -2 2 v 2 a 1 1 0 0 0 1 1 h 1.72 l -0.5 2 H 20 a 1 1 0 0 0 -1 1 v 4 a 1 1 0 0 0 2 0 V 21 h 1 a 1 1 0 0 0 1 -0.76 l 1 -4 a 1 1 0 0 0 -0.18 -0.86 A 1 1 0 0 0 23 15 H 21 V 14 h 2 a 1 1 0 0 0 1 -1 V 9 a 1 1 0 0 0 -1 -1 H 19.5 A 4.51 4.51 0 0 0 15 12.5 V 15 H 14 a 1 1 0 0 0 -1 1 v 4 a 1 1 0 0 0 1 1 h 1 v 6 H 8 a 3 3 0 0 1 -3 -3 V 8 A 3 3 0 0 1 8 5 H 24 a 3 3 0 0 1 3 3 V 24 a 3 3 0 0 1 -3 3 H 20 a 1 1 0 0 0 0 2 h 4 a 5 5 0 0 0 5 -5 V 8 A 5 5 0 0 0 24 3 Z" stroke-linecap="round" />
</g>
</svg>