<?xml version="1.0" encoding="UTF-8" standalone="no" ?>
<!DOCTYPE svg PUBLIC "-//W3C//DTD SVG 1.1//EN" "http://www.w3.org/Graphics/SVG/1.1/DTD/svg11.dtd">
<svg xmlns="http://www.w3.org/2000/svg" xmlns:xlink="http://www.w3.org/1999/xlink" version="1.1" width="400" height="400" viewBox="0 0 400 400" xml:space="preserve">
<desc>Created with Fabric.js 4.6.0</desc>
<defs>
</defs>
<g transform="matrix(1.52 0 0 1.52 200 200)" id="jRK1v984B-7NEGxbSi3Er"  >
<g style="" vector-effect="non-scaling-stroke"   >
		<g transform="matrix(8.33 0 0 8.33 0 0)" id="IIQtrHOfwOhBVBEejGQtr"  >
<path style="stroke: rgb(0,0,0); stroke-width: 1.5; stroke-dasharray: none; stroke-linecap: round; stroke-dashoffset: 0; stroke-linejoin: round; stroke-miterlimit: 4; fill: none; fill-rule: nonzero; opacity: 1;" vector-effect="non-scaling-stroke"  transform=" translate(-12, -12)" d="M 21 8 L 21 16 C 21 18.7614 18.7614 21 16 21 L 8 21 C 5.23858 21 3 18.7614 3 16 L 3 8 C 3 5.23858 5.23858 3 8 3 L 16 3 C 18.7614 3 21 5.23858 21 8 Z" stroke-linecap="round" />
</g>
		<g transform="matrix(8.33 0 0 8.33 8.33 20.83)" id="DdJiI7gTZJ5MMyGilF-Qw"  >
<path style="stroke: rgb(0,0,0); stroke-width: 1.5; stroke-dasharray: none; stroke-linecap: round; stroke-dashoffset: 0; stroke-linejoin: round; stroke-miterlimit: 4; fill: none; fill-rule: nonzero; opacity: 1;" vector-effect="non-scaling-stroke"  transform=" translate(-13, -14.5)" d="M 11 21 C 11 18 11 15 11 12 C 11 9.8125 11.5 8 15 8" stroke-linecap="round" />
</g>
		<g transform="matrix(8.33 0 0 8.33 0 8.33)" id="4KC5N1icPJvcz_0hOvBb3"  >
<path style="stroke: rgb(0,0,0); stroke-width: 1.5; stroke-dasharray: none; stroke-linecap: round; stroke-dashoffset: 0; stroke-linejoin: round; stroke-miterlimit: 4; fill: none; fill-rule: nonzero; opacity: 1;" vector-effect="non-scaling-stroke"  transform=" translate(-12, -13)" d="M 9 13 L 11 13 L 15 13" stroke-linecap="round" />
</g>
</g>
</g>
</svg>