<?xml version="1.0" encoding="UTF-8" standalone="no" ?>
<!DOCTYPE svg PUBLIC "-//W3C//DTD SVG 1.1//EN" "http://www.w3.org/Graphics/SVG/1.1/DTD/svg11.dtd">
<svg xmlns="http://www.w3.org/2000/svg" xmlns:xlink="http://www.w3.org/1999/xlink" version="1.1" width="400" height="400" viewBox="0 0 400 400" xml:space="preserve">
<desc>Created with Fabric.js 4.6.0</desc>
<defs>
</defs>
<g transform="matrix(1 0 0 1 200 200)" id="AUma6I-B0opbKctFYz2GO"  >
<g style="" vector-effect="non-scaling-stroke"   >
		<g transform="matrix(3.53 0 0 3.53 0 -0.35)" id="18m8pSMtdQAXE3iN1JMdl"  >
<path style="stroke: none; stroke-width: 1; stroke-dasharray: none; stroke-linecap: butt; stroke-dashoffset: 0; stroke-linejoin: miter; stroke-miterlimit: 4; fill: rgb(0,0,0); fill-rule: nonzero; opacity: 1;" vector-effect="non-scaling-stroke"  transform=" translate(-28.2, -29.5)" d="M 28.2 16.7 C 21.2 16.7 15.399999999999999 22.4 15.399999999999999 29.5 C 15.399999999999999 36.6 21.099999999999998 42.3 28.2 42.3 C 35.3 42.3 41 36.5 41 29.5 C 41 22.5 35.2 16.7 28.2 16.7 z M 28.2 37.7 C 23.7 37.7 20 34 20 29.500000000000004 C 20 25.000000000000007 23.7 21.300000000000004 28.2 21.300000000000004 C 32.7 21.300000000000004 36.4 25.000000000000004 36.4 29.500000000000004 C 36.4 34 32.7 37.7 28.2 37.7 z" stroke-linecap="round" />
</g>
		<g transform="matrix(3.53 0 0 3.53 46.91 -46.56)" id="cXMc2L9GHda3B62zl9cXq"  >
<path style="stroke: none; stroke-width: 1; stroke-dasharray: none; stroke-linecap: butt; stroke-dashoffset: 0; stroke-linejoin: miter; stroke-miterlimit: 4; fill: rgb(0,0,0); fill-rule: nonzero; opacity: 1;" vector-effect="non-scaling-stroke"  transform=" translate(-2.9, -2.9)" d="M 0 2.9 C 0 1.2983699999999998 1.29837 0 2.9 0 C 4.5016300000000005 0 5.8 1.29837 5.8 2.9 C 5.8 4.5016300000000005 4.50163 5.8 2.9 5.8 C 1.2983699999999998 5.8 0 4.50163 0 2.9 z" stroke-linecap="round" />
</g>
		<g transform="matrix(3.53 0 0 3.53 0 0)" id="MKvapSeB6_CMb9dxIqruy"  >
<path style="stroke: none; stroke-width: 1; stroke-dasharray: none; stroke-linecap: butt; stroke-dashoffset: 0; stroke-linejoin: miter; stroke-miterlimit: 4; fill: rgb(0,0,0); fill-rule: nonzero; opacity: 1;" vector-effect="non-scaling-stroke"  transform=" translate(-28.2, -29.6)" d="M 49 8.9 C 46.4 6.2 42.7 4.800000000000001 38.5 4.800000000000001 L 17.9 4.800000000000001 C 9.2 4.800000000000001 3.3999999999999986 10.600000000000001 3.3999999999999986 19.3 L 3.3999999999999986 39.8 C 3.3999999999999986 44.099999999999994 4.799999999999999 47.8 7.599999999999999 50.5 C 10.299999999999999 53.1 13.899999999999999 54.4 18 54.4 L 38.4 54.4 C 42.699999999999996 54.4 46.3 53 48.9 50.5 C 51.6 47.9 53 44.2 53 39.9 L 53 19.3 C 53 15.1 51.6 11.5 49 8.9 z M 48.6 39.9 C 48.6 43 47.5 45.5 45.7 47.199999999999996 C 43.900000000000006 48.89999999999999 41.400000000000006 49.8 38.400000000000006 49.8 L 18 49.8 C 15 49.8 12.5 48.9 10.7 47.199999999999996 C 8.9 45.4 8 42.9 8 39.8 L 8 19.3 C 8 16.3 8.9 13.8 10.7 12 C 12.399999999999999 10.3 15 9.4 18 9.4 L 38.6 9.4 C 41.6 9.4 44.1 10.3 45.9 12.100000000000001 C 47.6 13.900000000000002 48.6 16.400000000000002 48.6 19.3 L 48.6 39.9 L 48.6 39.9 z" stroke-linecap="round" />
</g>
</g>
</g>
</svg>