<?xml version="1.0" encoding="UTF-8" standalone="no" ?>
<!DOCTYPE svg PUBLIC "-//W3C//DTD SVG 1.1//EN" "http://www.w3.org/Graphics/SVG/1.1/DTD/svg11.dtd">
<svg xmlns="http://www.w3.org/2000/svg" xmlns:xlink="http://www.w3.org/1999/xlink" version="1.1" width="400" height="400" viewBox="0 0 400 400" xml:space="preserve">
<desc>Created with Fabric.js 4.6.0</desc>
<defs>
</defs>
<g transform="matrix(1.45 0 0 1.45 200 200)" id="H1ZbqBzrJKu-JUPjafFlK"  >
<g style="" vector-effect="non-scaling-stroke"   >
		<g transform="matrix(1.56 0 0 1.56 0 0)" id="R7cWqxmycjUBTszERWfB0"  >
<path style="stroke: none; stroke-width: 1; stroke-dasharray: none; stroke-linecap: butt; stroke-dashoffset: 0; stroke-linejoin: miter; stroke-miterlimit: 4; fill: rgb(0,0,0); fill-rule: nonzero; opacity: 1;" vector-effect="non-scaling-stroke"  transform=" translate(-64, -64)" d="M 104 8 C 112.83655599729269 8 120 15.163444002707301 120 23.999999999999996 L 120 104 C 120 112.83655599729269 112.83655599729269 120 104 120 L 24 120 C 15.163444002707305 120 8 112.83655599729269 8 104 L 8 24 C 8 15.163444002707305 15.163444002707305 8 24 8 L 104 8 M 104 0 L 24 0 C 10.761123324790884 0.03844543550873588 0.03844543550872004 10.761123324790894 0 24.00000000000001 L 0 104 C 0.03844543550872919 117.23887667520911 10.761123324790884 127.96155456449128 24 128 L 104 128 C 117.23887667520911 127.96155456449127 127.96155456449128 117.23887667520911 128 104 L 128 24 C 127.96155456449127 10.761123324790884 117.2388766752091 0.03844543550872004 103.99999999999999 0 Z" stroke-linecap="round" />
</g>
		<g transform="matrix(1.56 0 0 1.56 -0.02 0)" id="GPi9sRmSkSKkbp14nM6rG"  >
<path style="stroke: none; stroke-width: 1; stroke-dasharray: none; stroke-linecap: butt; stroke-dashoffset: 0; stroke-linejoin: miter; stroke-miterlimit: 4; fill: rgb(0,0,0); fill-rule: evenodd; opacity: 1;" vector-effect="non-scaling-stroke"  transform=" translate(-64, -64)" d="M 98.62 53.92 C 98.13000000000001 47.17 96.9 40.2 88.27000000000001 39.69 C 72.09979448937337 38.76814983689832 55.89020551062663 38.76814983689837 39.719999999999985 39.690000000000055 C 31.09000000000001 40.19 29.860000000000014 47.17 29.37000000000001 53.92 C 28.867538701788348 60.63060761323658 28.867538701788316 67.36939238676342 29.369999999999983 74.08 C 29.86000000000001 80.83 31.09000000000001 87.8 39.72000000000001 88.31 C 55.89020551062666 89.2318501631017 72.09979448937324 89.23185016310163 88.2699999999999 88.30999999999995 C 96.9 87.81 98.13000000000001 80.83 98.62 74.08 C 99.12246129821168 67.36939238676342 99.1224612982117 60.63060761323661 98.62000000000003 53.920000000000044 Z M 57 73 L 57 53 L 76 63 Z" stroke-linecap="round" />
</g>
</g>
</g>
</svg>